<mxfile host="Electron" modified="2024-12-04T13:12:30.233Z" agent="Mozilla/5.0 (Windows NT 10.0; Win64; x64) AppleWebKit/537.36 (KHTML, like Gecko) draw.io/24.1.0 Chrome/120.0.6099.109 Electron/28.1.0 Safari/537.36" version="24.1.0" etag="cIp_kTwB-ZbsT1iMkIUc" type="device">
  <diagram name="Class Diagram" id="0">
    <mxGraphModel dx="895" dy="1502" grid="1" gridSize="10" guides="1" tooltips="1" connect="1" arrows="1" fold="1" page="1" pageScale="1" pageWidth="827" pageHeight="1169" math="0" shadow="0">
      <root>
        <mxCell id="0" />
        <mxCell id="1" parent="0" />
        <mxCell id="Oe-N-usACuf5D2IzzdkB-7" value="" style="group" vertex="1" connectable="0" parent="1">
          <mxGeometry x="80" y="180" width="650" height="616" as="geometry" />
        </mxCell>
        <mxCell id="Oe-N-usACuf5D2IzzdkB-5" value="" style="shape=folder;fontStyle=1;spacingTop=10;tabWidth=140;tabHeight=20;tabPosition=left;html=1;whiteSpace=wrap;" vertex="1" parent="Oe-N-usACuf5D2IzzdkB-7">
          <mxGeometry width="610" height="600" as="geometry" />
        </mxCell>
        <mxCell id="Oe-N-usACuf5D2IzzdkB-6" value="&lt;font style=&quot;font-size: 8px;&quot;&gt;Пользовательская подсистема&lt;/font&gt;" style="text;align=center;fontStyle=1;verticalAlign=middle;spacingLeft=3;spacingRight=3;strokeColor=none;rotatable=0;points=[[0,0.5],[1,0.5]];portConstraint=eastwest;html=1;" vertex="1" parent="Oe-N-usACuf5D2IzzdkB-7">
          <mxGeometry width="140" height="20" as="geometry" />
        </mxCell>
        <mxCell id="Oe-N-usACuf5D2IzzdkB-41" style="edgeStyle=orthogonalEdgeStyle;rounded=0;orthogonalLoop=1;jettySize=auto;html=1;entryX=0.5;entryY=0;entryDx=0;entryDy=0;" edge="1" parent="Oe-N-usACuf5D2IzzdkB-7" source="Oe-N-usACuf5D2IzzdkB-1" target="Oe-N-usACuf5D2IzzdkB-27">
          <mxGeometry relative="1" as="geometry" />
        </mxCell>
        <mxCell id="Oe-N-usACuf5D2IzzdkB-44" style="edgeStyle=orthogonalEdgeStyle;rounded=0;orthogonalLoop=1;jettySize=auto;html=1;entryX=1;entryY=0.5;entryDx=0;entryDy=0;endArrow=open;endFill=0;startArrow=none;startFill=0;" edge="1" parent="Oe-N-usACuf5D2IzzdkB-7" source="Oe-N-usACuf5D2IzzdkB-1" target="Oe-N-usACuf5D2IzzdkB-20">
          <mxGeometry relative="1" as="geometry" />
        </mxCell>
        <mxCell id="Oe-N-usACuf5D2IzzdkB-1" value="User" style="swimlane;fontStyle=1;align=center;verticalAlign=top;childLayout=stackLayout;horizontal=1;startSize=26;horizontalStack=0;resizeParent=1;resizeParentMax=0;resizeLast=0;collapsible=1;marginBottom=0;whiteSpace=wrap;html=1;" vertex="1" parent="Oe-N-usACuf5D2IzzdkB-7">
          <mxGeometry x="410" y="50" width="160" height="242" as="geometry" />
        </mxCell>
        <mxCell id="Oe-N-usACuf5D2IzzdkB-2" value="- UserID: UUID" style="text;strokeColor=none;fillColor=none;align=left;verticalAlign=top;spacingLeft=4;spacingRight=4;overflow=hidden;rotatable=0;points=[[0,0.5],[1,0.5]];portConstraint=eastwest;whiteSpace=wrap;html=1;" vertex="1" parent="Oe-N-usACuf5D2IzzdkB-1">
          <mxGeometry y="26" width="160" height="26" as="geometry" />
        </mxCell>
        <mxCell id="Oe-N-usACuf5D2IzzdkB-14" value="+ nickname: string" style="text;strokeColor=none;fillColor=none;align=left;verticalAlign=top;spacingLeft=4;spacingRight=4;overflow=hidden;rotatable=0;points=[[0,0.5],[1,0.5]];portConstraint=eastwest;whiteSpace=wrap;html=1;" vertex="1" parent="Oe-N-usACuf5D2IzzdkB-1">
          <mxGeometry y="52" width="160" height="26" as="geometry" />
        </mxCell>
        <mxCell id="Oe-N-usACuf5D2IzzdkB-15" value="- roles: Role = user" style="text;strokeColor=none;fillColor=none;align=left;verticalAlign=top;spacingLeft=4;spacingRight=4;overflow=hidden;rotatable=0;points=[[0,0.5],[1,0.5]];portConstraint=eastwest;whiteSpace=wrap;html=1;" vertex="1" parent="Oe-N-usACuf5D2IzzdkB-1">
          <mxGeometry y="78" width="160" height="26" as="geometry" />
        </mxCell>
        <mxCell id="Oe-N-usACuf5D2IzzdkB-37" value="- password: string" style="text;strokeColor=none;fillColor=none;align=left;verticalAlign=top;spacingLeft=4;spacingRight=4;overflow=hidden;rotatable=0;points=[[0,0.5],[1,0.5]];portConstraint=eastwest;whiteSpace=wrap;html=1;" vertex="1" parent="Oe-N-usACuf5D2IzzdkB-1">
          <mxGeometry y="104" width="160" height="26" as="geometry" />
        </mxCell>
        <mxCell id="Oe-N-usACuf5D2IzzdkB-24" value="- is_blocked: bool" style="text;strokeColor=none;fillColor=none;align=left;verticalAlign=top;spacingLeft=4;spacingRight=4;overflow=hidden;rotatable=0;points=[[0,0.5],[1,0.5]];portConstraint=eastwest;whiteSpace=wrap;html=1;" vertex="1" parent="Oe-N-usACuf5D2IzzdkB-1">
          <mxGeometry y="130" width="160" height="26" as="geometry" />
        </mxCell>
        <mxCell id="Oe-N-usACuf5D2IzzdkB-3" value="" style="line;strokeWidth=1;fillColor=none;align=left;verticalAlign=middle;spacingTop=-1;spacingLeft=3;spacingRight=3;rotatable=0;labelPosition=right;points=[];portConstraint=eastwest;strokeColor=inherit;" vertex="1" parent="Oe-N-usACuf5D2IzzdkB-1">
          <mxGeometry y="156" width="160" height="8" as="geometry" />
        </mxCell>
        <mxCell id="Oe-N-usACuf5D2IzzdkB-4" value="+ login(): bool" style="text;strokeColor=none;fillColor=none;align=left;verticalAlign=top;spacingLeft=4;spacingRight=4;overflow=hidden;rotatable=0;points=[[0,0.5],[1,0.5]];portConstraint=eastwest;whiteSpace=wrap;html=1;" vertex="1" parent="Oe-N-usACuf5D2IzzdkB-1">
          <mxGeometry y="164" width="160" height="26" as="geometry" />
        </mxCell>
        <mxCell id="Oe-N-usACuf5D2IzzdkB-16" value="+ register(): bool" style="text;strokeColor=none;fillColor=none;align=left;verticalAlign=top;spacingLeft=4;spacingRight=4;overflow=hidden;rotatable=0;points=[[0,0.5],[1,0.5]];portConstraint=eastwest;whiteSpace=wrap;html=1;" vertex="1" parent="Oe-N-usACuf5D2IzzdkB-1">
          <mxGeometry y="190" width="160" height="26" as="geometry" />
        </mxCell>
        <mxCell id="Oe-N-usACuf5D2IzzdkB-36" value="- setRole(): void" style="text;strokeColor=none;fillColor=none;align=left;verticalAlign=top;spacingLeft=4;spacingRight=4;overflow=hidden;rotatable=0;points=[[0,0.5],[1,0.5]];portConstraint=eastwest;whiteSpace=wrap;html=1;" vertex="1" parent="Oe-N-usACuf5D2IzzdkB-1">
          <mxGeometry y="216" width="160" height="26" as="geometry" />
        </mxCell>
        <mxCell id="Oe-N-usACuf5D2IzzdkB-17" value="Profile" style="swimlane;fontStyle=1;align=center;verticalAlign=top;childLayout=stackLayout;horizontal=1;startSize=26;horizontalStack=0;resizeParent=1;resizeParentMax=0;resizeLast=0;collapsible=1;marginBottom=0;whiteSpace=wrap;html=1;" vertex="1" parent="Oe-N-usACuf5D2IzzdkB-7">
          <mxGeometry x="30" y="50" width="230" height="242" as="geometry" />
        </mxCell>
        <mxCell id="Oe-N-usACuf5D2IzzdkB-38" value="+ nickname: string" style="text;strokeColor=none;fillColor=none;align=left;verticalAlign=top;spacingLeft=4;spacingRight=4;overflow=hidden;rotatable=0;points=[[0,0.5],[1,0.5]];portConstraint=eastwest;whiteSpace=wrap;html=1;" vertex="1" parent="Oe-N-usACuf5D2IzzdkB-17">
          <mxGeometry y="26" width="230" height="26" as="geometry" />
        </mxCell>
        <mxCell id="Oe-N-usACuf5D2IzzdkB-18" value="+ avatar: string" style="text;strokeColor=none;fillColor=none;align=left;verticalAlign=top;spacingLeft=4;spacingRight=4;overflow=hidden;rotatable=0;points=[[0,0.5],[1,0.5]];portConstraint=eastwest;whiteSpace=wrap;html=1;" vertex="1" parent="Oe-N-usACuf5D2IzzdkB-17">
          <mxGeometry y="52" width="230" height="26" as="geometry" />
        </mxCell>
        <mxCell id="Oe-N-usACuf5D2IzzdkB-19" value="- birth_date: date" style="text;strokeColor=none;fillColor=none;align=left;verticalAlign=top;spacingLeft=4;spacingRight=4;overflow=hidden;rotatable=0;points=[[0,0.5],[1,0.5]];portConstraint=eastwest;whiteSpace=wrap;html=1;" vertex="1" parent="Oe-N-usACuf5D2IzzdkB-17">
          <mxGeometry y="78" width="230" height="26" as="geometry" />
        </mxCell>
        <mxCell id="Oe-N-usACuf5D2IzzdkB-20" value="- phone: string" style="text;strokeColor=none;fillColor=none;align=left;verticalAlign=top;spacingLeft=4;spacingRight=4;overflow=hidden;rotatable=0;points=[[0,0.5],[1,0.5]];portConstraint=eastwest;whiteSpace=wrap;html=1;" vertex="1" parent="Oe-N-usACuf5D2IzzdkB-17">
          <mxGeometry y="104" width="230" height="26" as="geometry" />
        </mxCell>
        <mxCell id="Oe-N-usACuf5D2IzzdkB-25" value="+ registration_date: date" style="text;strokeColor=none;fillColor=none;align=left;verticalAlign=top;spacingLeft=4;spacingRight=4;overflow=hidden;rotatable=0;points=[[0,0.5],[1,0.5]];portConstraint=eastwest;whiteSpace=wrap;html=1;" vertex="1" parent="Oe-N-usACuf5D2IzzdkB-17">
          <mxGeometry y="130" width="230" height="26" as="geometry" />
        </mxCell>
        <mxCell id="Oe-N-usACuf5D2IzzdkB-26" value="- notification_type: string = &#39;all&#39;" style="text;strokeColor=none;fillColor=none;align=left;verticalAlign=top;spacingLeft=4;spacingRight=4;overflow=hidden;rotatable=0;points=[[0,0.5],[1,0.5]];portConstraint=eastwest;whiteSpace=wrap;html=1;" vertex="1" parent="Oe-N-usACuf5D2IzzdkB-17">
          <mxGeometry y="156" width="230" height="26" as="geometry" />
        </mxCell>
        <mxCell id="Oe-N-usACuf5D2IzzdkB-21" value="" style="line;strokeWidth=1;fillColor=none;align=left;verticalAlign=middle;spacingTop=-1;spacingLeft=3;spacingRight=3;rotatable=0;labelPosition=right;points=[];portConstraint=eastwest;strokeColor=inherit;" vertex="1" parent="Oe-N-usACuf5D2IzzdkB-17">
          <mxGeometry y="182" width="230" height="8" as="geometry" />
        </mxCell>
        <mxCell id="Oe-N-usACuf5D2IzzdkB-22" value="+ updateProfile(): void" style="text;strokeColor=none;fillColor=none;align=left;verticalAlign=top;spacingLeft=4;spacingRight=4;overflow=hidden;rotatable=0;points=[[0,0.5],[1,0.5]];portConstraint=eastwest;whiteSpace=wrap;html=1;" vertex="1" parent="Oe-N-usACuf5D2IzzdkB-17">
          <mxGeometry y="190" width="230" height="26" as="geometry" />
        </mxCell>
        <mxCell id="Oe-N-usACuf5D2IzzdkB-40" value="+ linkAccount(accountType: String): void" style="text;strokeColor=none;fillColor=none;align=left;verticalAlign=top;spacingLeft=4;spacingRight=4;overflow=hidden;rotatable=0;points=[[0,0.5],[1,0.5]];portConstraint=eastwest;whiteSpace=wrap;html=1;" vertex="1" parent="Oe-N-usACuf5D2IzzdkB-17">
          <mxGeometry y="216" width="230" height="26" as="geometry" />
        </mxCell>
        <mxCell id="Oe-N-usACuf5D2IzzdkB-27" value="Role" style="swimlane;fontStyle=1;align=center;verticalAlign=top;childLayout=stackLayout;horizontal=1;startSize=26;horizontalStack=0;resizeParent=1;resizeParentMax=0;resizeLast=0;collapsible=1;marginBottom=0;whiteSpace=wrap;html=1;" vertex="1" parent="Oe-N-usACuf5D2IzzdkB-7">
          <mxGeometry x="410" y="362" width="160" height="86" as="geometry" />
        </mxCell>
        <mxCell id="Oe-N-usACuf5D2IzzdkB-28" value="+ name: string" style="text;strokeColor=none;fillColor=none;align=left;verticalAlign=top;spacingLeft=4;spacingRight=4;overflow=hidden;rotatable=0;points=[[0,0.5],[1,0.5]];portConstraint=eastwest;whiteSpace=wrap;html=1;" vertex="1" parent="Oe-N-usACuf5D2IzzdkB-27">
          <mxGeometry y="26" width="160" height="26" as="geometry" />
        </mxCell>
        <mxCell id="Oe-N-usACuf5D2IzzdkB-29" value="+ description: string" style="text;strokeColor=none;fillColor=none;align=left;verticalAlign=top;spacingLeft=4;spacingRight=4;overflow=hidden;rotatable=0;points=[[0,0.5],[1,0.5]];portConstraint=eastwest;whiteSpace=wrap;html=1;" vertex="1" parent="Oe-N-usACuf5D2IzzdkB-27">
          <mxGeometry y="52" width="160" height="26" as="geometry" />
        </mxCell>
        <mxCell id="Oe-N-usACuf5D2IzzdkB-32" value="" style="line;strokeWidth=1;fillColor=none;align=left;verticalAlign=middle;spacingTop=-1;spacingLeft=3;spacingRight=3;rotatable=0;labelPosition=right;points=[];portConstraint=eastwest;strokeColor=inherit;" vertex="1" parent="Oe-N-usACuf5D2IzzdkB-27">
          <mxGeometry y="78" width="160" height="8" as="geometry" />
        </mxCell>
        <mxCell id="Oe-N-usACuf5D2IzzdkB-42" value="1" style="text;align=center;fontStyle=1;verticalAlign=middle;spacingLeft=3;spacingRight=3;strokeColor=none;rotatable=0;points=[[0,0.5],[1,0.5]];portConstraint=eastwest;html=1;" vertex="1" parent="Oe-N-usACuf5D2IzzdkB-7">
          <mxGeometry x="440" y="292" width="80" height="26" as="geometry" />
        </mxCell>
        <mxCell id="Oe-N-usACuf5D2IzzdkB-43" value="1" style="text;align=center;fontStyle=1;verticalAlign=middle;spacingLeft=3;spacingRight=3;strokeColor=none;rotatable=0;points=[[0,0.5],[1,0.5]];portConstraint=eastwest;html=1;" vertex="1" parent="Oe-N-usACuf5D2IzzdkB-7">
          <mxGeometry x="440" y="336" width="80" height="26" as="geometry" />
        </mxCell>
        <mxCell id="Oe-N-usACuf5D2IzzdkB-45" value="1" style="text;align=center;fontStyle=1;verticalAlign=middle;spacingLeft=3;spacingRight=3;strokeColor=none;rotatable=0;points=[[0,0.5],[1,0.5]];portConstraint=eastwest;html=1;" vertex="1" parent="Oe-N-usACuf5D2IzzdkB-7">
          <mxGeometry x="230" y="140" width="80" height="26" as="geometry" />
        </mxCell>
        <mxCell id="Oe-N-usACuf5D2IzzdkB-46" value="1" style="text;align=center;fontStyle=1;verticalAlign=middle;spacingLeft=3;spacingRight=3;strokeColor=none;rotatable=0;points=[[0,0.5],[1,0.5]];portConstraint=eastwest;html=1;" vertex="1" parent="Oe-N-usACuf5D2IzzdkB-7">
          <mxGeometry x="360" y="150" width="80" height="26" as="geometry" />
        </mxCell>
        <mxCell id="Oe-N-usACuf5D2IzzdkB-69" value="Email" style="swimlane;fontStyle=1;align=center;verticalAlign=top;childLayout=stackLayout;horizontal=1;startSize=26;horizontalStack=0;resizeParent=1;resizeParentMax=0;resizeLast=0;collapsible=1;marginBottom=0;whiteSpace=wrap;html=1;" vertex="1" parent="Oe-N-usACuf5D2IzzdkB-7">
          <mxGeometry x="410" y="492" width="160" height="60" as="geometry" />
        </mxCell>
        <mxCell id="Oe-N-usACuf5D2IzzdkB-70" value="- email: string" style="text;strokeColor=none;fillColor=none;align=left;verticalAlign=top;spacingLeft=4;spacingRight=4;overflow=hidden;rotatable=0;points=[[0,0.5],[1,0.5]];portConstraint=eastwest;whiteSpace=wrap;html=1;" vertex="1" parent="Oe-N-usACuf5D2IzzdkB-69">
          <mxGeometry y="26" width="160" height="26" as="geometry" />
        </mxCell>
        <mxCell id="Oe-N-usACuf5D2IzzdkB-75" value="" style="line;strokeWidth=1;fillColor=none;align=left;verticalAlign=middle;spacingTop=-1;spacingLeft=3;spacingRight=3;rotatable=0;labelPosition=right;points=[];portConstraint=eastwest;strokeColor=inherit;" vertex="1" parent="Oe-N-usACuf5D2IzzdkB-69">
          <mxGeometry y="52" width="160" height="8" as="geometry" />
        </mxCell>
        <mxCell id="Oe-N-usACuf5D2IzzdkB-79" value="UserEmail" style="swimlane;fontStyle=1;align=center;verticalAlign=top;childLayout=stackLayout;horizontal=1;startSize=26;horizontalStack=0;resizeParent=1;resizeParentMax=0;resizeLast=0;collapsible=1;marginBottom=0;whiteSpace=wrap;html=1;" vertex="1" parent="Oe-N-usACuf5D2IzzdkB-7">
          <mxGeometry x="60" y="336" width="160" height="216" as="geometry" />
        </mxCell>
        <mxCell id="Oe-N-usACuf5D2IzzdkB-80" value="# user: User" style="text;strokeColor=none;fillColor=none;align=left;verticalAlign=top;spacingLeft=4;spacingRight=4;overflow=hidden;rotatable=0;points=[[0,0.5],[1,0.5]];portConstraint=eastwest;whiteSpace=wrap;html=1;" vertex="1" parent="Oe-N-usACuf5D2IzzdkB-79">
          <mxGeometry y="26" width="160" height="26" as="geometry" />
        </mxCell>
        <mxCell id="Oe-N-usACuf5D2IzzdkB-81" value="# email: Email" style="text;strokeColor=none;fillColor=none;align=left;verticalAlign=top;spacingLeft=4;spacingRight=4;overflow=hidden;rotatable=0;points=[[0,0.5],[1,0.5]];portConstraint=eastwest;whiteSpace=wrap;html=1;" vertex="1" parent="Oe-N-usACuf5D2IzzdkB-79">
          <mxGeometry y="52" width="160" height="26" as="geometry" />
        </mxCell>
        <mxCell id="Oe-N-usACuf5D2IzzdkB-82" value="- is_active: bool" style="text;strokeColor=none;fillColor=none;align=left;verticalAlign=top;spacingLeft=4;spacingRight=4;overflow=hidden;rotatable=0;points=[[0,0.5],[1,0.5]];portConstraint=eastwest;whiteSpace=wrap;html=1;" vertex="1" parent="Oe-N-usACuf5D2IzzdkB-79">
          <mxGeometry y="78" width="160" height="26" as="geometry" />
        </mxCell>
        <mxCell id="Oe-N-usACuf5D2IzzdkB-83" value="- is_confirmed: bool" style="text;strokeColor=none;fillColor=none;align=left;verticalAlign=top;spacingLeft=4;spacingRight=4;overflow=hidden;rotatable=0;points=[[0,0.5],[1,0.5]];portConstraint=eastwest;whiteSpace=wrap;html=1;" vertex="1" parent="Oe-N-usACuf5D2IzzdkB-79">
          <mxGeometry y="104" width="160" height="26" as="geometry" />
        </mxCell>
        <mxCell id="Oe-N-usACuf5D2IzzdkB-84" value="- created_at: date" style="text;strokeColor=none;fillColor=none;align=left;verticalAlign=top;spacingLeft=4;spacingRight=4;overflow=hidden;rotatable=0;points=[[0,0.5],[1,0.5]];portConstraint=eastwest;whiteSpace=wrap;html=1;" vertex="1" parent="Oe-N-usACuf5D2IzzdkB-79">
          <mxGeometry y="130" width="160" height="26" as="geometry" />
        </mxCell>
        <mxCell id="Oe-N-usACuf5D2IzzdkB-89" value="- updated_at: date" style="text;strokeColor=none;fillColor=none;align=left;verticalAlign=top;spacingLeft=4;spacingRight=4;overflow=hidden;rotatable=0;points=[[0,0.5],[1,0.5]];portConstraint=eastwest;whiteSpace=wrap;html=1;" vertex="1" parent="Oe-N-usACuf5D2IzzdkB-79">
          <mxGeometry y="156" width="160" height="26" as="geometry" />
        </mxCell>
        <mxCell id="Oe-N-usACuf5D2IzzdkB-85" value="" style="line;strokeWidth=1;fillColor=none;align=left;verticalAlign=middle;spacingTop=-1;spacingLeft=3;spacingRight=3;rotatable=0;labelPosition=right;points=[];portConstraint=eastwest;strokeColor=inherit;" vertex="1" parent="Oe-N-usACuf5D2IzzdkB-79">
          <mxGeometry y="182" width="160" height="8" as="geometry" />
        </mxCell>
        <mxCell id="Oe-N-usACuf5D2IzzdkB-86" value="+ changeEmail(): bool" style="text;strokeColor=none;fillColor=none;align=left;verticalAlign=top;spacingLeft=4;spacingRight=4;overflow=hidden;rotatable=0;points=[[0,0.5],[1,0.5]];portConstraint=eastwest;whiteSpace=wrap;html=1;" vertex="1" parent="Oe-N-usACuf5D2IzzdkB-79">
          <mxGeometry y="190" width="160" height="26" as="geometry" />
        </mxCell>
        <mxCell id="Oe-N-usACuf5D2IzzdkB-94" style="edgeStyle=orthogonalEdgeStyle;rounded=0;orthogonalLoop=1;jettySize=auto;html=1;exitX=1;exitY=0.5;exitDx=0;exitDy=0;entryX=0;entryY=0.5;entryDx=0;entryDy=0;" edge="1" parent="Oe-N-usACuf5D2IzzdkB-7" source="Oe-N-usACuf5D2IzzdkB-80" target="Oe-N-usACuf5D2IzzdkB-24">
          <mxGeometry relative="1" as="geometry" />
        </mxCell>
        <mxCell id="Oe-N-usACuf5D2IzzdkB-95" style="edgeStyle=orthogonalEdgeStyle;rounded=0;orthogonalLoop=1;jettySize=auto;html=1;exitX=1;exitY=0.5;exitDx=0;exitDy=0;entryX=0;entryY=0.5;entryDx=0;entryDy=0;" edge="1" parent="Oe-N-usACuf5D2IzzdkB-7" source="Oe-N-usACuf5D2IzzdkB-81" target="Oe-N-usACuf5D2IzzdkB-70">
          <mxGeometry relative="1" as="geometry" />
        </mxCell>
        <mxCell id="Oe-N-usACuf5D2IzzdkB-96" value="1" style="text;align=center;fontStyle=1;verticalAlign=middle;spacingLeft=3;spacingRight=3;strokeColor=none;rotatable=0;points=[[0,0.5],[1,0.5]];portConstraint=eastwest;html=1;" vertex="1" parent="Oe-N-usACuf5D2IzzdkB-7">
          <mxGeometry x="200" y="350" width="80" height="26" as="geometry" />
        </mxCell>
        <mxCell id="Oe-N-usACuf5D2IzzdkB-97" value="1..*" style="text;align=center;fontStyle=1;verticalAlign=middle;spacingLeft=3;spacingRight=3;strokeColor=none;rotatable=0;points=[[0,0.5],[1,0.5]];portConstraint=eastwest;html=1;" vertex="1" parent="Oe-N-usACuf5D2IzzdkB-7">
          <mxGeometry x="350" y="200" width="80" height="26" as="geometry" />
        </mxCell>
        <mxCell id="Oe-N-usACuf5D2IzzdkB-98" value="1" style="text;align=center;fontStyle=1;verticalAlign=middle;spacingLeft=3;spacingRight=3;strokeColor=none;rotatable=0;points=[[0,0.5],[1,0.5]];portConstraint=eastwest;html=1;" vertex="1" parent="Oe-N-usACuf5D2IzzdkB-7">
          <mxGeometry x="200" y="405" width="80" height="26" as="geometry" />
        </mxCell>
        <mxCell id="Oe-N-usACuf5D2IzzdkB-99" value="1..*" style="text;align=center;fontStyle=1;verticalAlign=middle;spacingLeft=3;spacingRight=3;strokeColor=none;rotatable=0;points=[[0,0.5],[1,0.5]];portConstraint=eastwest;html=1;" vertex="1" parent="Oe-N-usACuf5D2IzzdkB-7">
          <mxGeometry x="350" y="500" width="80" height="26" as="geometry" />
        </mxCell>
        <mxCell id="Oe-N-usACuf5D2IzzdkB-104" value="1" style="text;align=center;fontStyle=1;verticalAlign=middle;spacingLeft=3;spacingRight=3;strokeColor=none;rotatable=0;points=[[0,0.5],[1,0.5]];portConstraint=eastwest;html=1;" vertex="1" parent="Oe-N-usACuf5D2IzzdkB-7">
          <mxGeometry x="540" y="350" width="80" height="26" as="geometry" />
        </mxCell>
        <mxCell id="Oe-N-usACuf5D2IzzdkB-110" value="1" style="text;align=center;fontStyle=1;verticalAlign=middle;spacingLeft=3;spacingRight=3;strokeColor=none;rotatable=0;points=[[0,0.5],[1,0.5]];portConstraint=eastwest;html=1;" vertex="1" parent="Oe-N-usACuf5D2IzzdkB-7">
          <mxGeometry x="360" y="250" width="80" height="26" as="geometry" />
        </mxCell>
        <mxCell id="Oe-N-usACuf5D2IzzdkB-124" value="1" style="text;align=center;fontStyle=1;verticalAlign=middle;spacingLeft=3;spacingRight=3;strokeColor=none;rotatable=0;points=[[0,0.5],[1,0.5]];portConstraint=eastwest;html=1;" vertex="1" parent="Oe-N-usACuf5D2IzzdkB-7">
          <mxGeometry x="540" y="405" width="80" height="26" as="geometry" />
        </mxCell>
        <mxCell id="Oe-N-usACuf5D2IzzdkB-159" value="1" style="text;align=center;fontStyle=1;verticalAlign=middle;spacingLeft=3;spacingRight=3;strokeColor=none;rotatable=0;points=[[0,0.5],[1,0.5]];portConstraint=eastwest;html=1;" vertex="1" parent="Oe-N-usACuf5D2IzzdkB-7">
          <mxGeometry x="540" y="376" width="80" height="26" as="geometry" />
        </mxCell>
        <mxCell id="Oe-N-usACuf5D2IzzdkB-49" value="" style="group" vertex="1" connectable="0" parent="1">
          <mxGeometry x="100" y="910" width="610" height="710" as="geometry" />
        </mxCell>
        <mxCell id="Oe-N-usACuf5D2IzzdkB-47" value="" style="shape=folder;fontStyle=1;spacingTop=10;tabWidth=140;tabHeight=20;tabPosition=left;html=1;whiteSpace=wrap;" vertex="1" parent="Oe-N-usACuf5D2IzzdkB-49">
          <mxGeometry width="610" height="610" as="geometry" />
        </mxCell>
        <mxCell id="Oe-N-usACuf5D2IzzdkB-48" value="&lt;font style=&quot;font-size: 8px;&quot;&gt;Административная подсистема&lt;/font&gt;" style="text;align=center;fontStyle=1;verticalAlign=middle;spacingLeft=3;spacingRight=3;strokeColor=none;rotatable=0;points=[[0,0.5],[1,0.5]];portConstraint=eastwest;html=1;" vertex="1" parent="Oe-N-usACuf5D2IzzdkB-49">
          <mxGeometry width="140" height="20" as="geometry" />
        </mxCell>
        <mxCell id="Oe-N-usACuf5D2IzzdkB-50" value="SupportTicket" style="swimlane;fontStyle=1;align=center;verticalAlign=top;childLayout=stackLayout;horizontal=1;startSize=26;horizontalStack=0;resizeParent=1;resizeParentMax=0;resizeLast=0;collapsible=1;marginBottom=0;whiteSpace=wrap;html=1;" vertex="1" parent="Oe-N-usACuf5D2IzzdkB-49">
          <mxGeometry x="30" y="50" width="170" height="216" as="geometry" />
        </mxCell>
        <mxCell id="Oe-N-usACuf5D2IzzdkB-51" value="# ticketID: int" style="text;strokeColor=none;fillColor=none;align=left;verticalAlign=top;spacingLeft=4;spacingRight=4;overflow=hidden;rotatable=0;points=[[0,0.5],[1,0.5]];portConstraint=eastwest;whiteSpace=wrap;html=1;" vertex="1" parent="Oe-N-usACuf5D2IzzdkB-50">
          <mxGeometry y="26" width="170" height="26" as="geometry" />
        </mxCell>
        <mxCell id="Oe-N-usACuf5D2IzzdkB-52" value="# user: User" style="text;strokeColor=none;fillColor=none;align=left;verticalAlign=top;spacingLeft=4;spacingRight=4;overflow=hidden;rotatable=0;points=[[0,0.5],[1,0.5]];portConstraint=eastwest;whiteSpace=wrap;html=1;" vertex="1" parent="Oe-N-usACuf5D2IzzdkB-50">
          <mxGeometry y="52" width="170" height="26" as="geometry" />
        </mxCell>
        <mxCell id="Oe-N-usACuf5D2IzzdkB-53" value="+ issueCategory: string" style="text;strokeColor=none;fillColor=none;align=left;verticalAlign=top;spacingLeft=4;spacingRight=4;overflow=hidden;rotatable=0;points=[[0,0.5],[1,0.5]];portConstraint=eastwest;whiteSpace=wrap;html=1;" vertex="1" parent="Oe-N-usACuf5D2IzzdkB-50">
          <mxGeometry y="78" width="170" height="26" as="geometry" />
        </mxCell>
        <mxCell id="Oe-N-usACuf5D2IzzdkB-54" value="+ status: string" style="text;strokeColor=none;fillColor=none;align=left;verticalAlign=top;spacingLeft=4;spacingRight=4;overflow=hidden;rotatable=0;points=[[0,0.5],[1,0.5]];portConstraint=eastwest;whiteSpace=wrap;html=1;" vertex="1" parent="Oe-N-usACuf5D2IzzdkB-50">
          <mxGeometry y="104" width="170" height="26" as="geometry" />
        </mxCell>
        <mxCell id="Oe-N-usACuf5D2IzzdkB-55" value="# assignedTo: SupportAgent" style="text;strokeColor=none;fillColor=none;align=left;verticalAlign=top;spacingLeft=4;spacingRight=4;overflow=hidden;rotatable=0;points=[[0,0.5],[1,0.5]];portConstraint=eastwest;whiteSpace=wrap;html=1;" vertex="1" parent="Oe-N-usACuf5D2IzzdkB-50">
          <mxGeometry y="130" width="170" height="26" as="geometry" />
        </mxCell>
        <mxCell id="Oe-N-usACuf5D2IzzdkB-56" value="" style="line;strokeWidth=1;fillColor=none;align=left;verticalAlign=middle;spacingTop=-1;spacingLeft=3;spacingRight=3;rotatable=0;labelPosition=right;points=[];portConstraint=eastwest;strokeColor=inherit;" vertex="1" parent="Oe-N-usACuf5D2IzzdkB-50">
          <mxGeometry y="156" width="170" height="8" as="geometry" />
        </mxCell>
        <mxCell id="Oe-N-usACuf5D2IzzdkB-57" value="+&amp;nbsp;submitTicket(): void" style="text;strokeColor=none;fillColor=none;align=left;verticalAlign=top;spacingLeft=4;spacingRight=4;overflow=hidden;rotatable=0;points=[[0,0.5],[1,0.5]];portConstraint=eastwest;whiteSpace=wrap;html=1;" vertex="1" parent="Oe-N-usACuf5D2IzzdkB-50">
          <mxGeometry y="164" width="170" height="26" as="geometry" />
        </mxCell>
        <mxCell id="Oe-N-usACuf5D2IzzdkB-58" value="# resolveTicket(): void" style="text;strokeColor=none;fillColor=none;align=left;verticalAlign=top;spacingLeft=4;spacingRight=4;overflow=hidden;rotatable=0;points=[[0,0.5],[1,0.5]];portConstraint=eastwest;whiteSpace=wrap;html=1;" vertex="1" parent="Oe-N-usACuf5D2IzzdkB-50">
          <mxGeometry y="190" width="170" height="26" as="geometry" />
        </mxCell>
        <mxCell id="Oe-N-usACuf5D2IzzdkB-60" value="SupportAgent" style="swimlane;fontStyle=1;align=center;verticalAlign=top;childLayout=stackLayout;horizontal=1;startSize=26;horizontalStack=0;resizeParent=1;resizeParentMax=0;resizeLast=0;collapsible=1;marginBottom=0;whiteSpace=wrap;html=1;" vertex="1" parent="Oe-N-usACuf5D2IzzdkB-49">
          <mxGeometry x="240" y="50" width="240" height="166" as="geometry" />
        </mxCell>
        <mxCell id="Oe-N-usACuf5D2IzzdkB-61" value="# agentID: UUID" style="text;strokeColor=none;fillColor=none;align=left;verticalAlign=top;spacingLeft=4;spacingRight=4;overflow=hidden;rotatable=0;points=[[0,0.5],[1,0.5]];portConstraint=eastwest;whiteSpace=wrap;html=1;" vertex="1" parent="Oe-N-usACuf5D2IzzdkB-60">
          <mxGeometry y="26" width="240" height="26" as="geometry" />
        </mxCell>
        <mxCell id="Oe-N-usACuf5D2IzzdkB-62" value="+ nickname: string" style="text;strokeColor=none;fillColor=none;align=left;verticalAlign=top;spacingLeft=4;spacingRight=4;overflow=hidden;rotatable=0;points=[[0,0.5],[1,0.5]];portConstraint=eastwest;whiteSpace=wrap;html=1;" vertex="1" parent="Oe-N-usACuf5D2IzzdkB-60">
          <mxGeometry y="52" width="240" height="26" as="geometry" />
        </mxCell>
        <mxCell id="Oe-N-usACuf5D2IzzdkB-63" value="- roles: Role = support" style="text;strokeColor=none;fillColor=none;align=left;verticalAlign=top;spacingLeft=4;spacingRight=4;overflow=hidden;rotatable=0;points=[[0,0.5],[1,0.5]];portConstraint=eastwest;whiteSpace=wrap;html=1;" vertex="1" parent="Oe-N-usACuf5D2IzzdkB-60">
          <mxGeometry y="78" width="240" height="26" as="geometry" />
        </mxCell>
        <mxCell id="Oe-N-usACuf5D2IzzdkB-66" value="" style="line;strokeWidth=1;fillColor=none;align=left;verticalAlign=middle;spacingTop=-1;spacingLeft=3;spacingRight=3;rotatable=0;labelPosition=right;points=[];portConstraint=eastwest;strokeColor=inherit;" vertex="1" parent="Oe-N-usACuf5D2IzzdkB-60">
          <mxGeometry y="104" width="240" height="8" as="geometry" />
        </mxCell>
        <mxCell id="Oe-N-usACuf5D2IzzdkB-67" value="+ assignTicket(ticket: SupportTicket): void" style="text;strokeColor=none;fillColor=none;align=left;verticalAlign=top;spacingLeft=4;spacingRight=4;overflow=hidden;rotatable=0;points=[[0,0.5],[1,0.5]];portConstraint=eastwest;whiteSpace=wrap;html=1;" vertex="1" parent="Oe-N-usACuf5D2IzzdkB-60">
          <mxGeometry y="112" width="240" height="28" as="geometry" />
        </mxCell>
        <mxCell id="Oe-N-usACuf5D2IzzdkB-68" value="+ closeTicket(ticket: SupportTicket): void" style="text;strokeColor=none;fillColor=none;align=left;verticalAlign=top;spacingLeft=4;spacingRight=4;overflow=hidden;rotatable=0;points=[[0,0.5],[1,0.5]];portConstraint=eastwest;whiteSpace=wrap;html=1;" vertex="1" parent="Oe-N-usACuf5D2IzzdkB-60">
          <mxGeometry y="140" width="240" height="26" as="geometry" />
        </mxCell>
        <mxCell id="Oe-N-usACuf5D2IzzdkB-105" value="1" style="text;align=center;fontStyle=1;verticalAlign=middle;spacingLeft=3;spacingRight=3;strokeColor=none;rotatable=0;points=[[0,0.5],[1,0.5]];portConstraint=eastwest;html=1;" vertex="1" parent="Oe-N-usACuf5D2IzzdkB-49">
          <mxGeometry x="450" y="119" width="80" height="26" as="geometry" />
        </mxCell>
        <mxCell id="Oe-N-usACuf5D2IzzdkB-111" value="*" style="text;align=center;fontStyle=1;verticalAlign=middle;spacingLeft=3;spacingRight=3;strokeColor=none;rotatable=0;points=[[0,0.5],[1,0.5]];portConstraint=eastwest;html=1;" vertex="1" parent="Oe-N-usACuf5D2IzzdkB-49">
          <mxGeometry x="130" y="20" width="80" height="26" as="geometry" />
        </mxCell>
        <mxCell id="Oe-N-usACuf5D2IzzdkB-112" style="edgeStyle=orthogonalEdgeStyle;rounded=0;orthogonalLoop=1;jettySize=auto;html=1;exitX=1;exitY=0.5;exitDx=0;exitDy=0;entryX=0;entryY=0.5;entryDx=0;entryDy=0;" edge="1" parent="Oe-N-usACuf5D2IzzdkB-49" source="Oe-N-usACuf5D2IzzdkB-53" target="Oe-N-usACuf5D2IzzdkB-63">
          <mxGeometry relative="1" as="geometry" />
        </mxCell>
        <mxCell id="Oe-N-usACuf5D2IzzdkB-113" value="1" style="text;align=center;fontStyle=1;verticalAlign=middle;spacingLeft=3;spacingRight=3;strokeColor=none;rotatable=0;points=[[0,0.5],[1,0.5]];portConstraint=eastwest;html=1;" vertex="1" parent="Oe-N-usACuf5D2IzzdkB-49">
          <mxGeometry x="200" y="120" width="10" height="26" as="geometry" />
        </mxCell>
        <mxCell id="Oe-N-usACuf5D2IzzdkB-114" value="1" style="text;align=center;fontStyle=1;verticalAlign=middle;spacingLeft=3;spacingRight=3;strokeColor=none;rotatable=0;points=[[0,0.5],[1,0.5]];portConstraint=eastwest;html=1;" vertex="1" parent="Oe-N-usACuf5D2IzzdkB-49">
          <mxGeometry x="230" y="120" width="10" height="26" as="geometry" />
        </mxCell>
        <mxCell id="Oe-N-usACuf5D2IzzdkB-115" value="Admin" style="swimlane;fontStyle=1;align=center;verticalAlign=top;childLayout=stackLayout;horizontal=1;startSize=26;horizontalStack=0;resizeParent=1;resizeParentMax=0;resizeLast=0;collapsible=1;marginBottom=0;whiteSpace=wrap;html=1;" vertex="1" parent="Oe-N-usACuf5D2IzzdkB-49">
          <mxGeometry x="240" y="259" width="240" height="140" as="geometry" />
        </mxCell>
        <mxCell id="Oe-N-usACuf5D2IzzdkB-116" value="# adminID: UUID" style="text;strokeColor=none;fillColor=none;align=left;verticalAlign=top;spacingLeft=4;spacingRight=4;overflow=hidden;rotatable=0;points=[[0,0.5],[1,0.5]];portConstraint=eastwest;whiteSpace=wrap;html=1;" vertex="1" parent="Oe-N-usACuf5D2IzzdkB-115">
          <mxGeometry y="26" width="240" height="26" as="geometry" />
        </mxCell>
        <mxCell id="Oe-N-usACuf5D2IzzdkB-117" value="+ nickname: string" style="text;strokeColor=none;fillColor=none;align=left;verticalAlign=top;spacingLeft=4;spacingRight=4;overflow=hidden;rotatable=0;points=[[0,0.5],[1,0.5]];portConstraint=eastwest;whiteSpace=wrap;html=1;" vertex="1" parent="Oe-N-usACuf5D2IzzdkB-115">
          <mxGeometry y="52" width="240" height="26" as="geometry" />
        </mxCell>
        <mxCell id="Oe-N-usACuf5D2IzzdkB-118" value="- roles: Role = admin" style="text;strokeColor=none;fillColor=none;align=left;verticalAlign=top;spacingLeft=4;spacingRight=4;overflow=hidden;rotatable=0;points=[[0,0.5],[1,0.5]];portConstraint=eastwest;whiteSpace=wrap;html=1;" vertex="1" parent="Oe-N-usACuf5D2IzzdkB-115">
          <mxGeometry y="78" width="240" height="26" as="geometry" />
        </mxCell>
        <mxCell id="Oe-N-usACuf5D2IzzdkB-119" value="" style="line;strokeWidth=1;fillColor=none;align=left;verticalAlign=middle;spacingTop=-1;spacingLeft=3;spacingRight=3;rotatable=0;labelPosition=right;points=[];portConstraint=eastwest;strokeColor=inherit;" vertex="1" parent="Oe-N-usACuf5D2IzzdkB-115">
          <mxGeometry y="104" width="240" height="8" as="geometry" />
        </mxCell>
        <mxCell id="Oe-N-usACuf5D2IzzdkB-120" value="+ manageUser(): void" style="text;strokeColor=none;fillColor=none;align=left;verticalAlign=top;spacingLeft=4;spacingRight=4;overflow=hidden;rotatable=0;points=[[0,0.5],[1,0.5]];portConstraint=eastwest;whiteSpace=wrap;html=1;" vertex="1" parent="Oe-N-usACuf5D2IzzdkB-115">
          <mxGeometry y="112" width="240" height="28" as="geometry" />
        </mxCell>
        <mxCell id="Oe-N-usACuf5D2IzzdkB-125" value="1" style="text;align=center;fontStyle=1;verticalAlign=middle;spacingLeft=3;spacingRight=3;strokeColor=none;rotatable=0;points=[[0,0.5],[1,0.5]];portConstraint=eastwest;html=1;" vertex="1" parent="Oe-N-usACuf5D2IzzdkB-49">
          <mxGeometry x="460" y="330" width="80" height="26" as="geometry" />
        </mxCell>
        <mxCell id="Oe-N-usACuf5D2IzzdkB-128" value="CoopTicket" style="swimlane;fontStyle=1;align=center;verticalAlign=top;childLayout=stackLayout;horizontal=1;startSize=26;horizontalStack=0;resizeParent=1;resizeParentMax=0;resizeLast=0;collapsible=1;marginBottom=0;whiteSpace=wrap;html=1;" vertex="1" parent="Oe-N-usACuf5D2IzzdkB-49">
          <mxGeometry x="30" y="280" width="170" height="190" as="geometry" />
        </mxCell>
        <mxCell id="Oe-N-usACuf5D2IzzdkB-129" value="# ticketID: int" style="text;strokeColor=none;fillColor=none;align=left;verticalAlign=top;spacingLeft=4;spacingRight=4;overflow=hidden;rotatable=0;points=[[0,0.5],[1,0.5]];portConstraint=eastwest;whiteSpace=wrap;html=1;" vertex="1" parent="Oe-N-usACuf5D2IzzdkB-128">
          <mxGeometry y="26" width="170" height="26" as="geometry" />
        </mxCell>
        <mxCell id="Oe-N-usACuf5D2IzzdkB-130" value="+ email: string" style="text;strokeColor=none;fillColor=none;align=left;verticalAlign=top;spacingLeft=4;spacingRight=4;overflow=hidden;rotatable=0;points=[[0,0.5],[1,0.5]];portConstraint=eastwest;whiteSpace=wrap;html=1;" vertex="1" parent="Oe-N-usACuf5D2IzzdkB-128">
          <mxGeometry y="52" width="170" height="26" as="geometry" />
        </mxCell>
        <mxCell id="Oe-N-usACuf5D2IzzdkB-131" value="+ name: string" style="text;strokeColor=none;fillColor=none;align=left;verticalAlign=top;spacingLeft=4;spacingRight=4;overflow=hidden;rotatable=0;points=[[0,0.5],[1,0.5]];portConstraint=eastwest;whiteSpace=wrap;html=1;" vertex="1" parent="Oe-N-usACuf5D2IzzdkB-128">
          <mxGeometry y="78" width="170" height="26" as="geometry" />
        </mxCell>
        <mxCell id="Oe-N-usACuf5D2IzzdkB-132" value="+ details: string" style="text;strokeColor=none;fillColor=none;align=left;verticalAlign=top;spacingLeft=4;spacingRight=4;overflow=hidden;rotatable=0;points=[[0,0.5],[1,0.5]];portConstraint=eastwest;whiteSpace=wrap;html=1;" vertex="1" parent="Oe-N-usACuf5D2IzzdkB-128">
          <mxGeometry y="104" width="170" height="26" as="geometry" />
        </mxCell>
        <mxCell id="Oe-N-usACuf5D2IzzdkB-134" value="" style="line;strokeWidth=1;fillColor=none;align=left;verticalAlign=middle;spacingTop=-1;spacingLeft=3;spacingRight=3;rotatable=0;labelPosition=right;points=[];portConstraint=eastwest;strokeColor=inherit;" vertex="1" parent="Oe-N-usACuf5D2IzzdkB-128">
          <mxGeometry y="130" width="170" height="8" as="geometry" />
        </mxCell>
        <mxCell id="Oe-N-usACuf5D2IzzdkB-135" value="+&amp;nbsp;submitTicket(): void" style="text;strokeColor=none;fillColor=none;align=left;verticalAlign=top;spacingLeft=4;spacingRight=4;overflow=hidden;rotatable=0;points=[[0,0.5],[1,0.5]];portConstraint=eastwest;whiteSpace=wrap;html=1;" vertex="1" parent="Oe-N-usACuf5D2IzzdkB-128">
          <mxGeometry y="138" width="170" height="26" as="geometry" />
        </mxCell>
        <mxCell id="Oe-N-usACuf5D2IzzdkB-136" value="+ getAnswer(): string" style="text;strokeColor=none;fillColor=none;align=left;verticalAlign=top;spacingLeft=4;spacingRight=4;overflow=hidden;rotatable=0;points=[[0,0.5],[1,0.5]];portConstraint=eastwest;whiteSpace=wrap;html=1;" vertex="1" parent="Oe-N-usACuf5D2IzzdkB-128">
          <mxGeometry y="164" width="170" height="26" as="geometry" />
        </mxCell>
        <mxCell id="Oe-N-usACuf5D2IzzdkB-150" value="Editor" style="swimlane;fontStyle=1;align=center;verticalAlign=top;childLayout=stackLayout;horizontal=1;startSize=26;horizontalStack=0;resizeParent=1;resizeParentMax=0;resizeLast=0;collapsible=1;marginBottom=0;whiteSpace=wrap;html=1;" vertex="1" parent="Oe-N-usACuf5D2IzzdkB-49">
          <mxGeometry x="240" y="450" width="240" height="140" as="geometry" />
        </mxCell>
        <mxCell id="Oe-N-usACuf5D2IzzdkB-151" value="# editorID: UUID" style="text;strokeColor=none;fillColor=none;align=left;verticalAlign=top;spacingLeft=4;spacingRight=4;overflow=hidden;rotatable=0;points=[[0,0.5],[1,0.5]];portConstraint=eastwest;whiteSpace=wrap;html=1;" vertex="1" parent="Oe-N-usACuf5D2IzzdkB-150">
          <mxGeometry y="26" width="240" height="26" as="geometry" />
        </mxCell>
        <mxCell id="Oe-N-usACuf5D2IzzdkB-152" value="+ nickname: string" style="text;strokeColor=none;fillColor=none;align=left;verticalAlign=top;spacingLeft=4;spacingRight=4;overflow=hidden;rotatable=0;points=[[0,0.5],[1,0.5]];portConstraint=eastwest;whiteSpace=wrap;html=1;" vertex="1" parent="Oe-N-usACuf5D2IzzdkB-150">
          <mxGeometry y="52" width="240" height="26" as="geometry" />
        </mxCell>
        <mxCell id="Oe-N-usACuf5D2IzzdkB-153" value="- roles: Role = editor" style="text;strokeColor=none;fillColor=none;align=left;verticalAlign=top;spacingLeft=4;spacingRight=4;overflow=hidden;rotatable=0;points=[[0,0.5],[1,0.5]];portConstraint=eastwest;whiteSpace=wrap;html=1;" vertex="1" parent="Oe-N-usACuf5D2IzzdkB-150">
          <mxGeometry y="78" width="240" height="26" as="geometry" />
        </mxCell>
        <mxCell id="Oe-N-usACuf5D2IzzdkB-154" value="" style="line;strokeWidth=1;fillColor=none;align=left;verticalAlign=middle;spacingTop=-1;spacingLeft=3;spacingRight=3;rotatable=0;labelPosition=right;points=[];portConstraint=eastwest;strokeColor=inherit;" vertex="1" parent="Oe-N-usACuf5D2IzzdkB-150">
          <mxGeometry y="104" width="240" height="8" as="geometry" />
        </mxCell>
        <mxCell id="Oe-N-usACuf5D2IzzdkB-155" value="+ checkNews(): string" style="text;strokeColor=none;fillColor=none;align=left;verticalAlign=top;spacingLeft=4;spacingRight=4;overflow=hidden;rotatable=0;points=[[0,0.5],[1,0.5]];portConstraint=eastwest;whiteSpace=wrap;html=1;" vertex="1" parent="Oe-N-usACuf5D2IzzdkB-150">
          <mxGeometry y="112" width="240" height="28" as="geometry" />
        </mxCell>
        <mxCell id="Oe-N-usACuf5D2IzzdkB-160" value="1" style="text;align=center;fontStyle=1;verticalAlign=middle;spacingLeft=3;spacingRight=3;strokeColor=none;rotatable=0;points=[[0,0.5],[1,0.5]];portConstraint=eastwest;html=1;" vertex="1" parent="Oe-N-usACuf5D2IzzdkB-49">
          <mxGeometry x="450" y="520" width="80" height="26" as="geometry" />
        </mxCell>
        <mxCell id="Oe-N-usACuf5D2IzzdkB-164" value="1" style="text;align=center;fontStyle=1;verticalAlign=middle;spacingLeft=3;spacingRight=3;strokeColor=none;rotatable=0;points=[[0,0.5],[1,0.5]];portConstraint=eastwest;html=1;" vertex="1" parent="Oe-N-usACuf5D2IzzdkB-49">
          <mxGeometry x="450" y="460" width="80" height="26" as="geometry" />
        </mxCell>
        <mxCell id="Oe-N-usACuf5D2IzzdkB-103" style="edgeStyle=orthogonalEdgeStyle;rounded=0;orthogonalLoop=1;jettySize=auto;html=1;exitX=1;exitY=0.5;exitDx=0;exitDy=0;entryX=0.996;entryY=0.163;entryDx=0;entryDy=0;entryPerimeter=0;endArrow=open;endFill=0;" edge="1" parent="1" source="Oe-N-usACuf5D2IzzdkB-63" target="Oe-N-usACuf5D2IzzdkB-27">
          <mxGeometry relative="1" as="geometry" />
        </mxCell>
        <mxCell id="Oe-N-usACuf5D2IzzdkB-106" style="edgeStyle=orthogonalEdgeStyle;rounded=0;orthogonalLoop=1;jettySize=auto;html=1;exitX=0.5;exitY=0;exitDx=0;exitDy=0;entryX=0.116;entryY=0.969;entryDx=0;entryDy=0;entryPerimeter=0;endArrow=block;endFill=0;" edge="1" parent="1" source="Oe-N-usACuf5D2IzzdkB-60" target="Oe-N-usACuf5D2IzzdkB-36">
          <mxGeometry relative="1" as="geometry">
            <Array as="points">
              <mxPoint x="460" y="950" />
              <mxPoint x="440" y="950" />
              <mxPoint x="440" y="490" />
              <mxPoint x="509" y="490" />
            </Array>
          </mxGeometry>
        </mxCell>
        <mxCell id="Oe-N-usACuf5D2IzzdkB-109" style="edgeStyle=orthogonalEdgeStyle;rounded=0;orthogonalLoop=1;jettySize=auto;html=1;exitX=0;exitY=0.5;exitDx=0;exitDy=0;entryX=0.75;entryY=0;entryDx=0;entryDy=0;startArrow=classic;startFill=1;endArrow=none;endFill=0;" edge="1" parent="1" source="Oe-N-usACuf5D2IzzdkB-36" target="Oe-N-usACuf5D2IzzdkB-50">
          <mxGeometry relative="1" as="geometry">
            <Array as="points">
              <mxPoint x="410" y="459" />
              <mxPoint x="410" y="870" />
              <mxPoint x="258" y="870" />
            </Array>
          </mxGeometry>
        </mxCell>
        <mxCell id="Oe-N-usACuf5D2IzzdkB-122" style="edgeStyle=orthogonalEdgeStyle;rounded=0;orthogonalLoop=1;jettySize=auto;html=1;exitX=0.5;exitY=0;exitDx=0;exitDy=0;entryX=0.031;entryY=1.01;entryDx=0;entryDy=0;entryPerimeter=0;endArrow=block;endFill=0;" edge="1" parent="1" source="Oe-N-usACuf5D2IzzdkB-115" target="Oe-N-usACuf5D2IzzdkB-36">
          <mxGeometry relative="1" as="geometry">
            <Array as="points">
              <mxPoint x="460" y="1160" />
              <mxPoint x="620" y="1160" />
              <mxPoint x="620" y="900" />
              <mxPoint x="450" y="900" />
              <mxPoint x="450" y="472" />
            </Array>
          </mxGeometry>
        </mxCell>
        <mxCell id="Oe-N-usACuf5D2IzzdkB-123" style="edgeStyle=orthogonalEdgeStyle;rounded=0;orthogonalLoop=1;jettySize=auto;html=1;exitX=1;exitY=0.5;exitDx=0;exitDy=0;entryX=1;entryY=0.5;entryDx=0;entryDy=0;endArrow=open;endFill=0;" edge="1" parent="1" source="Oe-N-usACuf5D2IzzdkB-118" target="Oe-N-usACuf5D2IzzdkB-28">
          <mxGeometry relative="1" as="geometry">
            <Array as="points">
              <mxPoint x="700" y="1260" />
              <mxPoint x="700" y="581" />
            </Array>
          </mxGeometry>
        </mxCell>
        <mxCell id="Oe-N-usACuf5D2IzzdkB-139" value="" style="group" vertex="1" connectable="0" parent="1">
          <mxGeometry x="770" y="230" width="610" height="600" as="geometry" />
        </mxCell>
        <mxCell id="Oe-N-usACuf5D2IzzdkB-137" value="" style="shape=folder;fontStyle=1;spacingTop=10;tabWidth=140;tabHeight=20;tabPosition=left;html=1;whiteSpace=wrap;" vertex="1" parent="Oe-N-usACuf5D2IzzdkB-139">
          <mxGeometry width="430" height="600" as="geometry" />
        </mxCell>
        <mxCell id="Oe-N-usACuf5D2IzzdkB-138" value="&lt;font style=&quot;font-size: 8px;&quot;&gt;Основная подсистема&lt;/font&gt;" style="text;align=center;fontStyle=1;verticalAlign=middle;spacingLeft=3;spacingRight=3;strokeColor=none;rotatable=0;points=[[0,0.5],[1,0.5]];portConstraint=eastwest;html=1;" vertex="1" parent="Oe-N-usACuf5D2IzzdkB-139">
          <mxGeometry width="140" height="20" as="geometry" />
        </mxCell>
        <mxCell id="Oe-N-usACuf5D2IzzdkB-140" value="News" style="swimlane;fontStyle=1;align=center;verticalAlign=top;childLayout=stackLayout;horizontal=1;startSize=26;horizontalStack=0;resizeParent=1;resizeParentMax=0;resizeLast=0;collapsible=1;marginBottom=0;whiteSpace=wrap;html=1;" vertex="1" parent="Oe-N-usACuf5D2IzzdkB-139">
          <mxGeometry x="40" y="60" width="160" height="268" as="geometry" />
        </mxCell>
        <mxCell id="Oe-N-usACuf5D2IzzdkB-141" value="- NewsID: int" style="text;strokeColor=none;fillColor=none;align=left;verticalAlign=top;spacingLeft=4;spacingRight=4;overflow=hidden;rotatable=0;points=[[0,0.5],[1,0.5]];portConstraint=eastwest;whiteSpace=wrap;html=1;" vertex="1" parent="Oe-N-usACuf5D2IzzdkB-140">
          <mxGeometry y="26" width="160" height="26" as="geometry" />
        </mxCell>
        <mxCell id="Oe-N-usACuf5D2IzzdkB-142" value="+ title: string" style="text;strokeColor=none;fillColor=none;align=left;verticalAlign=top;spacingLeft=4;spacingRight=4;overflow=hidden;rotatable=0;points=[[0,0.5],[1,0.5]];portConstraint=eastwest;whiteSpace=wrap;html=1;" vertex="1" parent="Oe-N-usACuf5D2IzzdkB-140">
          <mxGeometry y="52" width="160" height="26" as="geometry" />
        </mxCell>
        <mxCell id="Oe-N-usACuf5D2IzzdkB-143" value="+ content: string" style="text;strokeColor=none;fillColor=none;align=left;verticalAlign=top;spacingLeft=4;spacingRight=4;overflow=hidden;rotatable=0;points=[[0,0.5],[1,0.5]];portConstraint=eastwest;whiteSpace=wrap;html=1;" vertex="1" parent="Oe-N-usACuf5D2IzzdkB-140">
          <mxGeometry y="78" width="160" height="26" as="geometry" />
        </mxCell>
        <mxCell id="Oe-N-usACuf5D2IzzdkB-144" value="+ creator: Editor" style="text;strokeColor=none;fillColor=none;align=left;verticalAlign=top;spacingLeft=4;spacingRight=4;overflow=hidden;rotatable=0;points=[[0,0.5],[1,0.5]];portConstraint=eastwest;whiteSpace=wrap;html=1;" vertex="1" parent="Oe-N-usACuf5D2IzzdkB-140">
          <mxGeometry y="104" width="160" height="26" as="geometry" />
        </mxCell>
        <mxCell id="Oe-N-usACuf5D2IzzdkB-145" value="+ create_date: date" style="text;strokeColor=none;fillColor=none;align=left;verticalAlign=top;spacingLeft=4;spacingRight=4;overflow=hidden;rotatable=0;points=[[0,0.5],[1,0.5]];portConstraint=eastwest;whiteSpace=wrap;html=1;" vertex="1" parent="Oe-N-usACuf5D2IzzdkB-140">
          <mxGeometry y="130" width="160" height="26" as="geometry" />
        </mxCell>
        <mxCell id="Oe-N-usACuf5D2IzzdkB-161" value="+ update_date: date" style="text;strokeColor=none;fillColor=none;align=left;verticalAlign=top;spacingLeft=4;spacingRight=4;overflow=hidden;rotatable=0;points=[[0,0.5],[1,0.5]];portConstraint=eastwest;whiteSpace=wrap;html=1;" vertex="1" parent="Oe-N-usACuf5D2IzzdkB-140">
          <mxGeometry y="156" width="160" height="26" as="geometry" />
        </mxCell>
        <mxCell id="Oe-N-usACuf5D2IzzdkB-146" value="" style="line;strokeWidth=1;fillColor=none;align=left;verticalAlign=middle;spacingTop=-1;spacingLeft=3;spacingRight=3;rotatable=0;labelPosition=right;points=[];portConstraint=eastwest;strokeColor=inherit;" vertex="1" parent="Oe-N-usACuf5D2IzzdkB-140">
          <mxGeometry y="182" width="160" height="8" as="geometry" />
        </mxCell>
        <mxCell id="Oe-N-usACuf5D2IzzdkB-147" value="+ createNews(): void" style="text;strokeColor=none;fillColor=none;align=left;verticalAlign=top;spacingLeft=4;spacingRight=4;overflow=hidden;rotatable=0;points=[[0,0.5],[1,0.5]];portConstraint=eastwest;whiteSpace=wrap;html=1;" vertex="1" parent="Oe-N-usACuf5D2IzzdkB-140">
          <mxGeometry y="190" width="160" height="26" as="geometry" />
        </mxCell>
        <mxCell id="Oe-N-usACuf5D2IzzdkB-148" value="- delNews(): void" style="text;strokeColor=none;fillColor=none;align=left;verticalAlign=top;spacingLeft=4;spacingRight=4;overflow=hidden;rotatable=0;points=[[0,0.5],[1,0.5]];portConstraint=eastwest;whiteSpace=wrap;html=1;" vertex="1" parent="Oe-N-usACuf5D2IzzdkB-140">
          <mxGeometry y="216" width="160" height="26" as="geometry" />
        </mxCell>
        <mxCell id="Oe-N-usACuf5D2IzzdkB-149" value="- editNews(): void" style="text;strokeColor=none;fillColor=none;align=left;verticalAlign=top;spacingLeft=4;spacingRight=4;overflow=hidden;rotatable=0;points=[[0,0.5],[1,0.5]];portConstraint=eastwest;whiteSpace=wrap;html=1;" vertex="1" parent="Oe-N-usACuf5D2IzzdkB-140">
          <mxGeometry y="242" width="160" height="26" as="geometry" />
        </mxCell>
        <mxCell id="Oe-N-usACuf5D2IzzdkB-163" value="*" style="text;align=center;fontStyle=1;verticalAlign=middle;spacingLeft=3;spacingRight=3;strokeColor=none;rotatable=0;points=[[0,0.5],[1,0.5]];portConstraint=eastwest;html=1;" vertex="1" parent="Oe-N-usACuf5D2IzzdkB-139">
          <mxGeometry x="-10" y="150" width="80" height="26" as="geometry" />
        </mxCell>
        <mxCell id="Oe-N-usACuf5D2IzzdkB-165" value="Game" style="swimlane;fontStyle=1;align=center;verticalAlign=top;childLayout=stackLayout;horizontal=1;startSize=26;horizontalStack=0;resizeParent=1;resizeParentMax=0;resizeLast=0;collapsible=1;marginBottom=0;whiteSpace=wrap;html=1;" vertex="1" parent="Oe-N-usACuf5D2IzzdkB-139">
          <mxGeometry x="240" y="60" width="160" height="216" as="geometry" />
        </mxCell>
        <mxCell id="Oe-N-usACuf5D2IzzdkB-166" value="- gameID: int" style="text;strokeColor=none;fillColor=none;align=left;verticalAlign=top;spacingLeft=4;spacingRight=4;overflow=hidden;rotatable=0;points=[[0,0.5],[1,0.5]];portConstraint=eastwest;whiteSpace=wrap;html=1;" vertex="1" parent="Oe-N-usACuf5D2IzzdkB-165">
          <mxGeometry y="26" width="160" height="26" as="geometry" />
        </mxCell>
        <mxCell id="Oe-N-usACuf5D2IzzdkB-167" value="+ title: string" style="text;strokeColor=none;fillColor=none;align=left;verticalAlign=top;spacingLeft=4;spacingRight=4;overflow=hidden;rotatable=0;points=[[0,0.5],[1,0.5]];portConstraint=eastwest;whiteSpace=wrap;html=1;" vertex="1" parent="Oe-N-usACuf5D2IzzdkB-165">
          <mxGeometry y="52" width="160" height="26" as="geometry" />
        </mxCell>
        <mxCell id="Oe-N-usACuf5D2IzzdkB-168" value="+ description: string" style="text;strokeColor=none;fillColor=none;align=left;verticalAlign=top;spacingLeft=4;spacingRight=4;overflow=hidden;rotatable=0;points=[[0,0.5],[1,0.5]];portConstraint=eastwest;whiteSpace=wrap;html=1;" vertex="1" parent="Oe-N-usACuf5D2IzzdkB-165">
          <mxGeometry y="78" width="160" height="26" as="geometry" />
        </mxCell>
        <mxCell id="Oe-N-usACuf5D2IzzdkB-169" value="+ releaseDate: date" style="text;strokeColor=none;fillColor=none;align=left;verticalAlign=top;spacingLeft=4;spacingRight=4;overflow=hidden;rotatable=0;points=[[0,0.5],[1,0.5]];portConstraint=eastwest;whiteSpace=wrap;html=1;" vertex="1" parent="Oe-N-usACuf5D2IzzdkB-165">
          <mxGeometry y="104" width="160" height="26" as="geometry" />
        </mxCell>
        <mxCell id="Oe-N-usACuf5D2IzzdkB-170" value="+ image: string" style="text;strokeColor=none;fillColor=none;align=left;verticalAlign=top;spacingLeft=4;spacingRight=4;overflow=hidden;rotatable=0;points=[[0,0.5],[1,0.5]];portConstraint=eastwest;whiteSpace=wrap;html=1;" vertex="1" parent="Oe-N-usACuf5D2IzzdkB-165">
          <mxGeometry y="130" width="160" height="26" as="geometry" />
        </mxCell>
        <mxCell id="Oe-N-usACuf5D2IzzdkB-171" value="+ genre: string" style="text;strokeColor=none;fillColor=none;align=left;verticalAlign=top;spacingLeft=4;spacingRight=4;overflow=hidden;rotatable=0;points=[[0,0.5],[1,0.5]];portConstraint=eastwest;whiteSpace=wrap;html=1;" vertex="1" parent="Oe-N-usACuf5D2IzzdkB-165">
          <mxGeometry y="156" width="160" height="26" as="geometry" />
        </mxCell>
        <mxCell id="Oe-N-usACuf5D2IzzdkB-172" value="" style="line;strokeWidth=1;fillColor=none;align=left;verticalAlign=middle;spacingTop=-1;spacingLeft=3;spacingRight=3;rotatable=0;labelPosition=right;points=[];portConstraint=eastwest;strokeColor=inherit;" vertex="1" parent="Oe-N-usACuf5D2IzzdkB-165">
          <mxGeometry y="182" width="160" height="8" as="geometry" />
        </mxCell>
        <mxCell id="Oe-N-usACuf5D2IzzdkB-173" value="+ addGame(): void" style="text;strokeColor=none;fillColor=none;align=left;verticalAlign=top;spacingLeft=4;spacingRight=4;overflow=hidden;rotatable=0;points=[[0,0.5],[1,0.5]];portConstraint=eastwest;whiteSpace=wrap;html=1;" vertex="1" parent="Oe-N-usACuf5D2IzzdkB-165">
          <mxGeometry y="190" width="160" height="26" as="geometry" />
        </mxCell>
        <mxCell id="Oe-N-usACuf5D2IzzdkB-176" value="PromoCode" style="swimlane;fontStyle=1;align=center;verticalAlign=top;childLayout=stackLayout;horizontal=1;startSize=26;horizontalStack=0;resizeParent=1;resizeParentMax=0;resizeLast=0;collapsible=1;marginBottom=0;whiteSpace=wrap;html=1;" vertex="1" parent="Oe-N-usACuf5D2IzzdkB-139">
          <mxGeometry x="240" y="340" width="160" height="242" as="geometry" />
        </mxCell>
        <mxCell id="Oe-N-usACuf5D2IzzdkB-177" value="- codeID: int" style="text;strokeColor=none;fillColor=none;align=left;verticalAlign=top;spacingLeft=4;spacingRight=4;overflow=hidden;rotatable=0;points=[[0,0.5],[1,0.5]];portConstraint=eastwest;whiteSpace=wrap;html=1;" vertex="1" parent="Oe-N-usACuf5D2IzzdkB-176">
          <mxGeometry y="26" width="160" height="26" as="geometry" />
        </mxCell>
        <mxCell id="Oe-N-usACuf5D2IzzdkB-178" value="- code: string" style="text;strokeColor=none;fillColor=none;align=left;verticalAlign=top;spacingLeft=4;spacingRight=4;overflow=hidden;rotatable=0;points=[[0,0.5],[1,0.5]];portConstraint=eastwest;whiteSpace=wrap;html=1;" vertex="1" parent="Oe-N-usACuf5D2IzzdkB-176">
          <mxGeometry y="52" width="160" height="26" as="geometry" />
        </mxCell>
        <mxCell id="Oe-N-usACuf5D2IzzdkB-179" value="- is_active: bool" style="text;strokeColor=none;fillColor=none;align=left;verticalAlign=top;spacingLeft=4;spacingRight=4;overflow=hidden;rotatable=0;points=[[0,0.5],[1,0.5]];portConstraint=eastwest;whiteSpace=wrap;html=1;" vertex="1" parent="Oe-N-usACuf5D2IzzdkB-176">
          <mxGeometry y="78" width="160" height="26" as="geometry" />
        </mxCell>
        <mxCell id="Oe-N-usACuf5D2IzzdkB-180" value="- count_activations: int" style="text;strokeColor=none;fillColor=none;align=left;verticalAlign=top;spacingLeft=4;spacingRight=4;overflow=hidden;rotatable=0;points=[[0,0.5],[1,0.5]];portConstraint=eastwest;whiteSpace=wrap;html=1;" vertex="1" parent="Oe-N-usACuf5D2IzzdkB-176">
          <mxGeometry y="104" width="160" height="26" as="geometry" />
        </mxCell>
        <mxCell id="Oe-N-usACuf5D2IzzdkB-181" value="- date_end: date" style="text;strokeColor=none;fillColor=none;align=left;verticalAlign=top;spacingLeft=4;spacingRight=4;overflow=hidden;rotatable=0;points=[[0,0.5],[1,0.5]];portConstraint=eastwest;whiteSpace=wrap;html=1;" vertex="1" parent="Oe-N-usACuf5D2IzzdkB-176">
          <mxGeometry y="130" width="160" height="26" as="geometry" />
        </mxCell>
        <mxCell id="Oe-N-usACuf5D2IzzdkB-186" value="# games: Game" style="text;strokeColor=none;fillColor=none;align=left;verticalAlign=top;spacingLeft=4;spacingRight=4;overflow=hidden;rotatable=0;points=[[0,0.5],[1,0.5]];portConstraint=eastwest;whiteSpace=wrap;html=1;" vertex="1" parent="Oe-N-usACuf5D2IzzdkB-176">
          <mxGeometry y="156" width="160" height="26" as="geometry" />
        </mxCell>
        <mxCell id="Oe-N-usACuf5D2IzzdkB-183" value="" style="line;strokeWidth=1;fillColor=none;align=left;verticalAlign=middle;spacingTop=-1;spacingLeft=3;spacingRight=3;rotatable=0;labelPosition=right;points=[];portConstraint=eastwest;strokeColor=inherit;" vertex="1" parent="Oe-N-usACuf5D2IzzdkB-176">
          <mxGeometry y="182" width="160" height="8" as="geometry" />
        </mxCell>
        <mxCell id="Oe-N-usACuf5D2IzzdkB-184" value="+ createPromo(): string" style="text;strokeColor=none;fillColor=none;align=left;verticalAlign=top;spacingLeft=4;spacingRight=4;overflow=hidden;rotatable=0;points=[[0,0.5],[1,0.5]];portConstraint=eastwest;whiteSpace=wrap;html=1;" vertex="1" parent="Oe-N-usACuf5D2IzzdkB-176">
          <mxGeometry y="190" width="160" height="26" as="geometry" />
        </mxCell>
        <mxCell id="Oe-N-usACuf5D2IzzdkB-185" value="+ activatePromo(): bool" style="text;strokeColor=none;fillColor=none;align=left;verticalAlign=top;spacingLeft=4;spacingRight=4;overflow=hidden;rotatable=0;points=[[0,0.5],[1,0.5]];portConstraint=eastwest;whiteSpace=wrap;html=1;" vertex="1" parent="Oe-N-usACuf5D2IzzdkB-176">
          <mxGeometry y="216" width="160" height="26" as="geometry" />
        </mxCell>
        <mxCell id="Oe-N-usACuf5D2IzzdkB-187" style="edgeStyle=orthogonalEdgeStyle;rounded=0;orthogonalLoop=1;jettySize=auto;html=1;exitX=0.5;exitY=0;exitDx=0;exitDy=0;entryX=0.504;entryY=1.019;entryDx=0;entryDy=0;entryPerimeter=0;" edge="1" parent="Oe-N-usACuf5D2IzzdkB-139" source="Oe-N-usACuf5D2IzzdkB-176" target="Oe-N-usACuf5D2IzzdkB-173">
          <mxGeometry relative="1" as="geometry" />
        </mxCell>
        <mxCell id="Oe-N-usACuf5D2IzzdkB-188" value="*" style="text;align=center;fontStyle=1;verticalAlign=middle;spacingLeft=3;spacingRight=3;strokeColor=none;rotatable=0;points=[[0,0.5],[1,0.5]];portConstraint=eastwest;html=1;" vertex="1" parent="Oe-N-usACuf5D2IzzdkB-139">
          <mxGeometry x="310" y="314" width="10" height="26" as="geometry" />
        </mxCell>
        <mxCell id="Oe-N-usACuf5D2IzzdkB-189" value="*" style="text;align=center;fontStyle=1;verticalAlign=middle;spacingLeft=3;spacingRight=3;strokeColor=none;rotatable=0;points=[[0,0.5],[1,0.5]];portConstraint=eastwest;html=1;" vertex="1" parent="Oe-N-usACuf5D2IzzdkB-139">
          <mxGeometry x="310" y="280" width="10" height="26" as="geometry" />
        </mxCell>
        <mxCell id="Oe-N-usACuf5D2IzzdkB-157" style="edgeStyle=orthogonalEdgeStyle;rounded=0;orthogonalLoop=1;jettySize=auto;html=1;exitX=0.5;exitY=0;exitDx=0;exitDy=0;entryX=0.064;entryY=1.032;entryDx=0;entryDy=0;entryPerimeter=0;endArrow=block;endFill=0;" edge="1" parent="1" source="Oe-N-usACuf5D2IzzdkB-150" target="Oe-N-usACuf5D2IzzdkB-36">
          <mxGeometry relative="1" as="geometry">
            <Array as="points">
              <mxPoint x="460" y="1340" />
              <mxPoint x="640" y="1340" />
              <mxPoint x="640" y="810" />
              <mxPoint x="460" y="810" />
              <mxPoint x="460" y="510" />
              <mxPoint x="500" y="510" />
            </Array>
          </mxGeometry>
        </mxCell>
        <mxCell id="Oe-N-usACuf5D2IzzdkB-158" style="edgeStyle=orthogonalEdgeStyle;rounded=0;orthogonalLoop=1;jettySize=auto;html=1;exitX=1;exitY=0.5;exitDx=0;exitDy=0;entryX=1.001;entryY=0.781;entryDx=0;entryDy=0;entryPerimeter=0;endArrow=open;endFill=0;" edge="1" parent="1" source="Oe-N-usACuf5D2IzzdkB-153" target="Oe-N-usACuf5D2IzzdkB-29">
          <mxGeometry relative="1" as="geometry">
            <Array as="points">
              <mxPoint x="720" y="1451" />
              <mxPoint x="720" y="614" />
            </Array>
          </mxGeometry>
        </mxCell>
        <mxCell id="Oe-N-usACuf5D2IzzdkB-162" style="edgeStyle=orthogonalEdgeStyle;rounded=0;orthogonalLoop=1;jettySize=auto;html=1;exitX=0;exitY=0.5;exitDx=0;exitDy=0;entryX=1;entryY=0.5;entryDx=0;entryDy=0;startArrow=none;startFill=0;endArrow=classic;endFill=1;" edge="1" parent="1" source="Oe-N-usACuf5D2IzzdkB-144" target="Oe-N-usACuf5D2IzzdkB-151">
          <mxGeometry relative="1" as="geometry">
            <Array as="points">
              <mxPoint x="790" y="407" />
              <mxPoint x="790" y="1399" />
            </Array>
          </mxGeometry>
        </mxCell>
      </root>
    </mxGraphModel>
  </diagram>
</mxfile>
